<svg xmlns="http://www.w3.org/2000/svg" height="50" width="100" viewBox="-1262.55 -371 10942.1 2226">
<path d="M4165 18v1440h217V783h133l405 629 35 46h239l-459-688s33-11 76-36c0 0 44-25 86-68 0 0 42-43 70-106 0 0 28-64 29-151 0 0-1-102-42-176 0 0-40-74-107-121 0 0-68-48-150-71 0 0-81-23-165-23zm217 108h93s77 0 144 29c0 0 67 30 109 92 0 0 42 63 44 162 0 0-1 93-39 158 0 0-39 65-105 98 0 0-66 34-149 34h-97zM5451 18v938s1 155 66 274c0 0 66 118 189 185 0 0 124 67 298 69 0 0 180-1 303-69 0 0 123-67 186-185 0 0 63-118 63-274V18h-213v1006s-1 99-43 174c0 0-41 75-117 118 0 0-76 43-179 44 0 0-101-1-179-44 0 0-77-43-120-118 0 0-44-75-45-174V18h-209m1802 128v1312h223V146h446V18H6807v128h446m944-128v1440h220V18h-220M0 736s1 169 61 306c0 0 61 136 168 234 0 0 107 98 249 151 0 0 141 52 305 53h5l172-15s82-15 148-37c0 0 67-21 108-44v-222l-56 49s-38 30-92 61c0 0-55 31-123 53 0 0-67 22-145 25l-20 1s-165-2-288-81c0 0-124-80-192-218 0 0-68-139-69-318 0 0 0-174 60-313 0 0 60-138 176-219 0 0 116-81 285-82h27s80 5 151 32c0 0 71 28 129 65l95 70 54 47V91l-81-32s-61-21-151-39L777 0h-6S609 0 469 52c0 0-139 51-244 147 0 0-106 96-165 232 0 0-59 135-60 305M2466 18h-873v1440h899v-127h-676V782h497V667h-497V142h650V18m371 0v1440h217V783h133l396 629 34 46h240l-450-688s33-11 76-36c0 0 44-25 86-68 0 0 42-43 70-106 0 0 28-64 29-151 0 0-1-102-41-176 0 0-41-74-108-121 0 0-68-48-149-71 0 0-82-23-166-23zm217 108h93s77 0 144 29c0 0 67 30 109 92 0 0 43 63 44 162 0 0-1 93-39 158 0 0-39 65-105 98 0 0-66 34-149 34h-97z"/></svg>